<?xml version="1.0" encoding="UTF-8"?>
<svg id="Layer_1" data-name="Layer 1" xmlns="http://www.w3.org/2000/svg" viewBox="0 0 64 84">
  <defs>
    <style>
      .cls-1 {
        fill: #966a48;
      }

      .cls-2 {
        fill: #30302f;
      }

      .cls-3 {
        fill: #787878;
      }

      .cls-4 {
        fill: #d3a99f;
      }

      .cls-5 {
        fill: #5a5b5b;
      }

      .cls-6 {
        fill: #e8e6e7;
      }

      .cls-7 {
        fill: #be8864;
      }

      .cls-8 {
        fill: #938c74;
      }

      .cls-9 {
        fill: #9e3a2f;
      }

      .cls-10 {
        fill: #c7c2ae;
      }

      .cls-11 {
        fill: #f4d5ce;
      }

      .cls-12 {
        fill: #5b585a;
      }

      .cls-13 {
        fill: #d66863;
      }

      .cls-14 {
        fill: #54575f;
      }

      .cls-15 {
        fill: #2c2c2c;
      }

      .cls-16 {
        fill: #84664a;
      }
    </style>
  </defs>
  <polygon points="62 44 62 46 62 48 64 48 64 46 64 44 62 44"/>
  <polygon points="60 50 60 52 58 52 58 54 56 54 56 56 54 56 54 58 56 58 58 58 58 56 60 56 60 54 62 54 62 52 62 50 62 48 60 48 60 50"/>
  <polygon class="cls-16" points="62 44 60 44 60 46 60 48 62 48 62 46 62 44"/>
  <polygon class="cls-16" points="58 50 58 52 60 52 60 50 60 48 58 48 58 50"/>
  <polygon points="58 40 58 38 56 38 56 40 56 42 58 42 58 44 58 46 58 48 60 48 60 46 60 44 62 44 62 42 62 40 62 38 60 38 60 40 58 40"/>
  <rect class="cls-16" x="58" y="38" width="2" height="2"/>
  <rect class="cls-16" x="56" y="52" width="2" height="2"/>
  <polygon points="58 48 56 48 56 50 56 52 58 52 58 50 58 48"/>
  <polygon class="cls-2" points="56 46 54 46 54 48 54 50 52 50 52 52 54 52 56 52 56 50 56 48 58 48 58 46 58 44 58 42 56 42 56 44 56 46"/>
  <polygon class="cls-16" points="58 36 58 34 58 32 58 30 56 30 54 30 54 28 52 28 52 30 52 32 54 32 56 32 56 34 56 36 56 38 58 38 58 36"/>
  <polygon class="cls-16" points="56 56 56 54 54 54 52 54 50 54 50 56 50 58 52 58 54 58 54 56 56 56"/>
  <polygon points="54 52 52 52 50 52 50 54 52 54 54 54 56 54 56 52 54 52"/>
  <polygon points="56 44 56 42 54 42 52 42 52 44 54 44 56 44"/>
  <polygon class="cls-12" points="54 42 56 42 56 40 56 38 54 38 52 38 50 38 48 38 48 40 46 40 46 42 46 44 46 46 48 46 48 44 50 44 52 44 52 42 54 42"/>
  <rect class="cls-2" x="52" y="36" width="2" height="2"/>
  <path d="M50,58v2h-4v2h4v4h-12v-4h-6v4h-8v-4h2v-4h6v2h8v-2h-4v-4h4v-6h6v2h2v-2h2v-2h2v-2h-4v2h-2v-6h2v-2h-2v-2h-2v6h-2v-8h-2v8h-8v-2h2v-2h4v-4h-2v2h-4v2h-2v-2h-2v-2h8v-2h6v2h6v-2h2v2h2v2h2v2h2v-6h-4v-4h2v2h4v8h2v-4h2v-4h-2v-2h-4v-2h-4v-4h-4v-2h2V4h-2v6h-2v2h2v6h-4v2h2v2h-2v-2h-2v2h-2v2h4v2h2v-2h4v4h-2v2h-6v-2h-2v2h-6v2h-6v-2h-4v-4h4v-2h-4v-4h4v-2h-4v-2h2v-2h-4v-4h-2v6h2v14h-2v6h2v8h-12v-2h-2v4h16v-2h6v2h-2v2H2v2h4v4h16v4h2v2h-2v18h-4v6h14v-10h-2v4h-6v-4h6v-2h-6v-4h8v6h2v-10h2v4h2v4h2v-4h10v4h-10v8h2v4h10v-24h2v-2h-4ZM34,56h-6v-4h2v-2h2v4h2v2ZM22,32h4v2h-4v-2ZM28,42h-2v-4h2v2h2v2h-2ZM32,44h4v2h2v-2h6v2h-6v6h-4v-4h-2v-4ZM8,52v-2h2v2h-2ZM12,52v-2h2v2h-2ZM18,52h-2v-2h4v2h-2ZM24,54v-2h-2v-2h4v6h-2v-2ZM26,80h4v2h-10v-2h6ZM50,82h-6v-2h6v2ZM50,76v2h-8v-4h8v2Z"/>
  <polygon class="cls-12" points="50 52 52 52 52 50 54 50 54 48 54 46 56 46 56 44 54 44 52 44 52 46 50 46 50 48 48 48 48 50 50 50 50 52"/>
  <polygon points="52 38 52 36 50 36 48 36 48 38 50 38 52 38"/>
  <polygon class="cls-8" points="48 76 48 78 50 78 50 76 50 74 48 74 48 76"/>
  <polygon points="48 56 46 56 46 58 48 58 50 58 50 56 50 54 48 54 48 56"/>
  <polygon class="cls-2" points="48 52 46 52 46 54 44 54 44 56 44 58 46 58 46 56 48 56 48 54 50 54 50 52 48 52"/>
  <rect x="48" y="50" width="2" height="2"/>
  <polygon class="cls-2" points="50 36 52 36 52 34 50 34 50 32 48 32 48 34 46 34 44 34 44 36 46 36 46 38 48 38 48 36 50 36"/>
  <polygon class="cls-15" points="46 80 44 80 44 82 46 82 48 82 50 82 50 80 48 80 46 80"/>
  <polygon class="cls-10" points="48 74 46 74 44 74 42 74 42 76 42 78 44 78 46 78 48 78 48 76 48 74"/>
  <polygon class="cls-8" points="48 70 48 72 50 72 50 70 50 68 48 68 46 68 46 70 48 70"/>
  <polygon class="cls-8" points="46 64 46 66 48 66 50 66 50 64 50 62 48 62 48 64 46 64"/>
  <polygon class="cls-8" points="46 58 46 60 48 60 50 60 50 58 48 58 46 58"/>
  <polygon class="cls-9" points="46 16 46 18 48 18 48 16 48 14 48 12 46 12 46 14 46 16"/>
  <polygon class="cls-13" points="46 6 46 8 46 10 48 10 48 8 48 6 48 4 46 4 46 6"/>
  <rect x="46" y="2" width="2" height="2"/>
  <rect x="44" y="58" width="2" height="2"/>
  <polygon class="cls-2" points="44 28 44 30 46 30 48 30 48 28 46 28 44 28"/>
  <polygon class="cls-12" points="46 28 48 28 50 28 50 26 50 24 48 24 46 24 46 26 44 26 44 28 46 28"/>
  <rect class="cls-4" x="44" y="20" width="2" height="2"/>
  <polygon class="cls-13" points="44 12 44 14 44 16 44 18 46 18 46 16 46 14 46 12 46 10 44 10 44 12"/>
  <polygon class="cls-9" points="44 4 44 6 44 8 46 8 46 6 46 4 46 2 44 2 44 4"/>
  <polygon class="cls-10" points="44 72 46 72 48 72 48 70 46 70 46 68 44 68 42 68 40 68 40 70 40 72 42 72 44 72"/>
  <polygon class="cls-10" points="42 60 40 60 40 62 38 62 38 64 38 66 40 66 42 66 44 66 46 66 46 64 48 64 48 62 46 62 46 60 44 60 42 60"/>
  <polygon class="cls-8" points="44 60 44 58 42 58 40 58 40 60 42 60 44 60"/>
  <polygon points="44 58 44 56 42 56 42 54 40 54 40 56 40 58 42 58 44 58"/>
  <polygon class="cls-12" points="42 56 44 56 44 54 46 54 46 52 48 52 48 50 46 50 46 48 44 48 42 48 40 48 40 50 40 52 40 54 42 54 42 56"/>
  <rect class="cls-1" x="42" y="44" width="2" height="2"/>
  <polygon class="cls-16" points="42 34 42 36 42 38 42 40 42 42 44 42 44 40 44 38 44 36 44 34 42 34"/>
  <rect class="cls-12" x="42" y="28" width="2" height="2"/>
  <rect x="42" y="26" width="2" height="2"/>
  <rect x="42" y="16" width="2" height="2"/>
  <polygon class="cls-9" points="42 14 42 16 44 16 44 14 44 12 44 10 42 10 42 12 42 14"/>
  <polygon class="cls-13" points="44 4 44 2 42 2 42 4 42 6 42 8 44 8 44 6 44 4"/>
  <polygon class="cls-7" points="42 46 42 44 40 44 38 44 38 46 40 46 42 46"/>
  <polygon class="cls-2" points="40 32 38 32 36 32 36 34 38 34 38 36 40 36 40 34 42 34 42 32 40 32"/>
  <polygon class="cls-4" points="42 16 40 16 38 16 38 18 40 18 40 20 42 20 44 20 44 18 42 18 42 16"/>
  <polygon points="40 14 38 14 36 14 36 16 38 16 40 16 42 16 42 14 40 14"/>
  <polygon class="cls-13" points="40 14 42 14 42 12 42 10 40 10 40 12 40 14"/>
  <polygon class="cls-9" points="42 4 42 2 40 2 40 4 40 6 40 8 42 8 42 6 42 4"/>
  <polygon class="cls-8" points="40 60 38 60 36 60 34 60 32 60 32 58 30 58 28 58 26 58 26 60 28 60 30 60 30 62 30 64 30 66 32 66 32 64 32 62 34 62 36 62 38 62 40 62 40 60"/>
  <polygon class="cls-2" points="40 54 38 54 36 54 36 56 38 56 38 58 40 58 40 56 40 54"/>
  <polygon class="cls-12" points="38 38 36 38 34 38 34 40 34 42 36 42 38 42 40 42 40 40 40 38 40 36 38 36 38 38"/>
  <polygon class="cls-6" points="38 26 38 28 36 28 36 26 34 26 32 26 32 28 30 28 28 28 28 26 26 26 24 26 24 28 24 30 26 30 28 30 28 32 30 32 32 32 34 32 34 30 36 30 38 30 40 30 40 28 42 28 42 26 44 26 44 24 42 24 40 24 40 26 38 26"/>
  <rect x="38" y="24" width="2" height="2"/>
  <polygon class="cls-11" points="40 18 38 18 38 16 36 16 34 16 32 16 30 16 28 16 26 16 24 16 24 18 26 18 28 18 28 20 28 22 30 22 32 22 32 20 32 18 34 18 36 18 36 20 34 20 34 22 32 22 32 24 34 24 36 24 36 26 38 26 38 24 40 24 40 22 42 22 42 20 40 20 40 18"/>
  <polygon class="cls-9" points="38 14 40 14 40 12 40 10 38 10 38 12 38 14"/>
  <polygon class="cls-13" points="40 2 38 2 38 4 38 6 40 6 40 4 40 2"/>
  <rect class="cls-12" x="36" y="56" width="2" height="2"/>
  <rect x="36" y="26" width="2" height="2"/>
  <polygon class="cls-13" points="36 12 36 14 38 14 38 12 38 10 38 8 36 8 36 10 36 12"/>
  <polygon class="cls-9" points="38 2 36 2 36 4 36 6 38 6 38 4 38 2"/>
  <polygon class="cls-4" points="34 50 34 52 36 52 38 52 38 50 36 50 34 50"/>
  <polygon class="cls-11" points="34 48 34 50 36 50 38 50 38 48 38 46 36 46 36 48 34 48"/>
  <rect x="34" y="46" width="2" height="2"/>
  <polygon class="cls-3" points="36 46 36 44 34 44 32 44 32 46 34 46 36 46"/>
  <polygon points="36 20 36 18 34 18 32 18 32 20 34 20 36 20"/>
  <polygon class="cls-9" points="34 12 36 12 36 10 36 8 34 8 34 10 34 12"/>
  <rect class="cls-13" x="34" y="2" width="2" height="2"/>
  <rect class="cls-14" x="32" y="46" width="2" height="2"/>
  <rect class="cls-2" x="32" y="40" width="2" height="2"/>
  <polygon class="cls-2" points="32 34 30 34 30 36 30 38 32 38 32 36 34 36 36 36 36 34 34 34 32 34"/>
  <polygon points="34 26 36 26 36 24 34 24 32 24 32 26 34 26"/>
  <rect class="cls-5" x="32" y="20" width="2" height="2"/>
  <polygon class="cls-13" points="32 10 32 12 34 12 34 10 34 8 34 6 32 6 32 8 32 10"/>
  <rect class="cls-9" x="32" y="2" width="2" height="2"/>
  <polygon class="cls-8" points="32 70 32 68 30 68 30 70 30 72 30 74 32 74 32 72 32 70"/>
  <polygon class="cls-12" points="30 54 28 54 28 56 30 56 32 56 34 56 34 54 32 54 30 54"/>
  <polygon class="cls-2" points="32 54 32 52 32 50 30 50 30 52 28 52 28 54 30 54 32 54"/>
  <polygon class="cls-6" points="32 26 32 24 30 24 28 24 28 26 30 26 32 26"/>
  <polygon points="32 24 32 22 30 22 28 22 28 24 30 24 32 24"/>
  <polygon class="cls-9" points="30 10 30 12 32 12 32 10 32 8 32 6 30 6 30 8 30 10"/>
  <rect class="cls-13" x="30" y="2" width="2" height="2"/>
  <polygon points="32 2 34 2 36 2 38 2 40 2 42 2 44 2 46 2 46 0 44 0 42 0 40 0 38 0 36 0 34 0 32 0 30 0 28 0 28 2 30 2 32 2"/>
  <polygon class="cls-8" points="28 76 28 78 30 78 30 76 30 74 28 74 28 76"/>
  <polygon class="cls-10" points="30 68 28 68 26 68 24 68 24 70 24 72 26 72 28 72 30 72 30 70 30 68"/>
  <polygon class="cls-10" points="30 62 30 60 28 60 26 60 26 62 24 62 24 64 24 66 26 66 28 66 30 66 30 64 30 62"/>
  <rect class="cls-2" x="28" y="40" width="2" height="2"/>
  <rect class="cls-12" x="28" y="34" width="2" height="2"/>
  <polygon points="30 28 32 28 32 26 30 26 28 26 28 28 30 28"/>
  <polygon class="cls-4" points="30 16 32 16 34 16 36 16 36 14 34 14 32 14 30 14 28 14 26 14 26 16 28 16 30 16"/>
  <polygon points="30 14 32 14 34 14 36 14 36 12 34 12 32 12 30 12 28 12 26 12 26 14 28 14 30 14"/>
  <polygon class="cls-13" points="28 10 28 12 30 12 30 10 30 8 30 6 28 6 28 8 28 10"/>
  <rect class="cls-9" x="28" y="2" width="2" height="2"/>
  <polygon class="cls-10" points="28 74 26 74 24 74 24 76 24 78 26 78 28 78 28 76 28 74"/>
  <polygon class="cls-3" points="28 46 30 46 30 44 28 44 26 44 24 44 24 46 26 46 28 46"/>
  <polygon class="cls-12" points="28 38 26 38 26 40 26 42 28 42 28 40 28 38"/>
  <polygon class="cls-11" points="26 22 26 20 24 20 24 22 24 24 26 24 28 24 28 22 26 22"/>
  <rect class="cls-5" x="26" y="20" width="2" height="2"/>
  <polygon class="cls-9" points="28 10 28 8 28 6 26 6 26 8 26 10 26 12 28 12 28 10"/>
  <rect class="cls-1" x="24" y="54" width="2" height="2"/>
  <polygon class="cls-7" points="26 52 26 50 24 50 22 50 22 52 24 52 24 54 26 54 26 52"/>
  <polygon class="cls-12" points="26 34 26 32 24 32 22 32 22 34 24 34 26 34"/>
  <polygon class="cls-13" points="24 12 24 14 26 14 26 12 26 10 26 8 24 8 24 10 24 12"/>
  <polygon points="26 6 28 6 30 6 32 6 34 6 34 8 36 8 38 8 38 10 40 10 42 10 44 10 46 10 46 8 44 8 42 8 40 8 40 6 38 6 36 6 36 4 34 4 32 4 30 4 28 4 28 2 26 2 26 4 24 4 24 6 24 8 26 8 26 6"/>
  <polygon class="cls-14" points="24 48 26 48 28 48 28 46 26 46 24 46 22 46 22 48 24 48"/>
  <polygon class="cls-9" points="22 14 24 14 24 12 24 10 22 10 22 12 22 14"/>
  <rect x="22" y="8" width="2" height="2"/>
  <polygon class="cls-15" points="20 80 20 82 22 82 24 82 26 82 28 82 30 82 30 80 28 80 26 80 24 80 22 80 20 80"/>
  <polygon class="cls-4" points="18 50 16 50 16 52 18 52 20 52 20 50 18 50"/>
  <rect class="cls-14" x="12" y="50" width="2" height="2"/>
  <rect class="cls-14" x="8" y="50" width="2" height="2"/>
  <polygon class="cls-14" points="6 44 6 46 8 46 8 44 8 42 6 42 6 44"/>
  <polygon class="cls-3" points="6 48 8 48 10 48 12 48 14 48 16 48 18 48 20 48 22 48 22 46 20 46 18 46 16 46 14 46 12 46 10 46 8 46 6 46 4 46 2 46 2 48 4 48 6 48"/>
  <polygon points="4 46 6 46 6 44 6 42 8 42 8 40 6 40 4 40 4 42 4 44 2 44 0 44 0 46 0 48 2 48 2 46 4 46"/>
</svg>