<?xml version="1.0" encoding="UTF-8"?>
<svg id="Layer_1" data-name="Layer 1" xmlns="http://www.w3.org/2000/svg" viewBox="0 0 56 84">
  <defs>
    <style>
      .cls-1 {
        fill: #9cb396;
      }

      .cls-2 {
        fill: #acd0ee;
      }

      .cls-3 {
        fill: #28393a;
      }

      .cls-4 {
        fill: #765b53;
      }

      .cls-5 {
        fill: #7e7f7f;
      }

      .cls-6 {
        fill: #434743;
      }

      .cls-7 {
        fill: #e9ccc2;
      }

      .cls-8 {
        fill: #667263;
      }

      .cls-9 {
        fill: #473a37;
      }

      .cls-10 {
        fill: #2f2e2a;
      }

      .cls-11 {
        fill: #2b2e27;
      }

      .cls-12 {
        fill: #aa8b81;
      }

      .cls-13 {
        fill: #b28e7c;
      }

      .cls-14 {
        fill: #9b817b;
      }

      .cls-15 {
        fill: #121311;
      }

      .cls-16 {
        fill: #6d6e70;
      }

      .cls-17 {
        fill: #48494c;
      }
    </style>
  </defs>
  <path d="M54,78v-6h-2v-10h-2v12h2v4h-8v-4h-2v-6h-2v-4h-2v-12h6v-2h2v2h2v-10h-2v4h-2v2h-2v2h-16v-10h2v2h2v2h2v-4h-2v-2h-2v-4h4v2h2v2h-2v2h4v-2h2v-2h8v2h-2v4h2v-2h2v2h2v-6h2v-8h-2v-2h-4v2h2v2h2v4h-8v-4h-2v4h-4v-2H6v-2H2v-2H0v4h4v2h8v4h2v2h4v2h2v-4h2v-2h2v-2h2v2h-2v8h-2v2h2v8h-2v6h-2v14h2v-12h2v-6h2v-2h2v-2h8v10h-4v4h2v-2h2v2h2v4h2v6h2v8h14v-6h-2ZM18,36v2h-2v-2h-2v-2h6v2h-2ZM54,82h-10v-2h10v2Z"/>
  <polygon class="cls-10" points="50 80 48 80 46 80 44 80 44 82 46 82 48 82 50 82 52 82 54 82 54 80 52 80 50 80"/>
  <polygon points="48 56 48 58 48 60 48 62 50 62 50 60 50 58 50 56 50 54 50 52 48 52 48 54 48 56"/>
  <polygon class="cls-17" points="48 74 48 72 48 70 48 68 48 66 48 64 46 64 46 62 46 60 46 58 46 56 46 54 44 54 42 54 40 54 38 54 38 56 38 58 38 60 38 62 38 64 40 64 40 66 40 68 42 68 42 70 42 72 42 74 44 74 44 76 44 78 46 78 48 78 48 76 48 74"/>
  <rect class="cls-8" x="46" y="40" width="2" height="2"/>
  <polygon class="cls-11" points="46 50 44 50 44 52 42 52 40 52 38 52 38 54 40 54 42 54 44 54 46 54 46 56 46 58 46 60 46 62 46 64 48 64 48 66 48 68 48 70 48 72 48 74 48 76 48 78 50 78 52 78 52 76 52 74 50 74 50 72 50 70 50 68 50 66 50 64 50 62 48 62 48 60 48 58 48 56 48 54 48 52 46 52 46 50"/>
  <rect class="cls-1" x="44" y="44" width="2" height="2"/>
  <rect class="cls-13" x="44" y="42" width="2" height="2"/>
  <polygon class="cls-11" points="46 32 46 30 44 30 44 28 44 26 42 26 42 28 40 28 40 30 42 30 42 32 42 34 44 34 46 34 48 34 48 32 46 32"/>
  <polygon points="46 10 46 12 46 14 46 16 46 18 48 18 48 16 48 14 48 12 48 10 48 8 48 6 46 6 46 8 46 10"/>
  <rect class="cls-6" x="42" y="46" width="2" height="2"/>
  <rect class="cls-8" x="42" y="44" width="2" height="2"/>
  <polygon class="cls-15" points="44 28 44 30 46 30 46 32 48 32 48 34 50 34 50 32 50 30 48 30 48 28 46 28 46 26 44 26 44 28"/>
  <polygon class="cls-8" points="40 46 40 48 38 48 38 50 40 50 42 50 42 48 42 46 40 46"/>
  <rect class="cls-13" x="40" y="44" width="2" height="2"/>
  <polygon points="40 42 40 44 42 44 44 44 44 42 42 42 40 42"/>
  <polygon points="42 18 42 20 40 20 40 22 38 22 38 24 40 24 42 24 42 26 44 26 46 26 46 24 44 24 44 22 44 20 46 20 46 18 44 18 42 18"/>
  <polygon class="cls-14" points="42 6 42 8 40 8 40 10 40 12 40 14 40 16 42 16 42 18 44 18 46 18 46 16 46 14 46 12 46 10 46 8 46 6 44 6 42 6"/>
  <rect class="cls-9" x="42" y="4" width="2" height="2"/>
  <polygon points="44 4 44 6 46 6 46 4 46 2 44 2 42 2 42 4 44 4"/>
  <rect class="cls-7" x="38" y="42" width="2" height="2"/>
  <polygon class="cls-7" points="40 40 40 42 42 42 44 42 44 40 44 38 46 38 46 36 44 36 42 36 40 36 38 36 38 38 40 38 40 40"/>
  <polygon points="42 28 42 26 40 26 38 26 38 28 36 28 36 26 34 26 32 26 32 28 34 28 34 30 36 30 38 30 40 30 40 28 42 28"/>
  <rect class="cls-1" x="40" y="24" width="2" height="2"/>
  <rect class="cls-9" x="40" y="6" width="2" height="2"/>
  <polygon class="cls-1" points="36 48 34 48 34 50 36 50 38 50 38 48 36 48"/>
  <polygon class="cls-13" points="36 46 36 48 38 48 40 48 40 46 38 46 36 46"/>
  <rect class="cls-8" x="38" y="24" width="2" height="2"/>
  <polygon class="cls-12" points="38 18 38 20 38 22 40 22 40 20 42 20 42 18 40 18 38 18"/>
  <polygon points="38 14 38 16 38 18 40 18 42 18 42 16 40 16 40 14 40 12 38 12 38 14"/>
  <polygon class="cls-9" points="38 12 40 12 40 10 40 8 38 8 38 10 38 12"/>
  <rect class="cls-6" x="34" y="46" width="2" height="2"/>
  <polygon class="cls-7" points="36 44 36 42 34 42 34 40 32 40 32 42 32 44 34 44 36 44"/>
  <polygon class="cls-11" points="36 42 36 44 38 44 38 42 40 42 40 40 40 38 38 38 38 40 36 40 34 40 34 42 36 42"/>
  <rect class="cls-7" x="36" y="38" width="2" height="2"/>
  <polygon class="cls-17" points="36 30 34 30 34 32 36 32 36 34 38 34 40 34 40 32 40 30 38 30 36 30"/>
  <rect class="cls-6" x="36" y="26" width="2" height="2"/>
  <rect x="36" y="24" width="2" height="2"/>
  <polygon points="36 12 38 12 38 10 38 8 36 8 36 10 36 12"/>
  <rect class="cls-8" x="32" y="48" width="2" height="2"/>
  <rect class="cls-1" x="32" y="46" width="2" height="2"/>
  <polygon points="34 46 36 46 38 46 40 46 40 44 38 44 36 44 34 44 32 44 32 46 34 46"/>
  <rect x="34" y="6" width="2" height="2"/>
  <polygon points="30 68 30 70 30 72 30 74 30 76 30 78 28 78 28 80 28 82 26 82 24 82 22 82 20 82 18 82 18 80 20 80 22 80 24 80 24 78 26 78 28 78 28 76 26 76 24 76 24 74 22 74 22 76 22 78 20 78 18 78 16 78 16 80 16 82 16 84 18 84 20 84 22 84 24 84 26 84 28 84 30 84 30 82 30 80 32 80 32 78 32 76 32 74 32 72 32 70 32 68 32 66 30 66 30 68"/>
  <polygon class="cls-11" points="32 62 34 62 36 62 36 60 36 58 36 56 36 54 36 52 34 52 32 52 30 52 28 52 28 54 30 54 32 54 34 54 34 56 32 56 32 58 32 60 30 60 30 62 30 64 28 64 28 66 28 68 28 70 28 72 28 74 28 76 28 78 30 78 30 76 30 74 30 72 30 70 30 68 30 66 32 66 32 64 32 62"/>
  <polygon class="cls-6" points="30 48 28 48 28 50 30 50 32 50 32 48 30 48"/>
  <polygon class="cls-11" points="34 38 34 36 32 36 32 34 30 34 28 34 28 36 30 36 30 38 32 38 34 38"/>
  <rect class="cls-16" x="32" y="30" width="2" height="2"/>
  <rect class="cls-5" x="32" y="28" width="2" height="2"/>
  <path class="cls-7" d="M34,26h2v-2h2v-8h-2v-2h-12v2h2v4h-2v4h2v-2h4v2h-4v2h2v2h4v-2h2ZM30,18v-2h4v2h-2v2h-2v-2Z"/>
  <polygon points="34 18 34 16 32 16 30 16 30 18 32 18 34 18"/>
  <rect x="32" y="8" width="2" height="2"/>
  <polygon class="cls-8" points="28 46 28 48 30 48 32 48 32 46 32 44 30 44 28 44 28 46"/>
  <rect class="cls-1" x="28" y="42" width="2" height="2"/>
  <rect class="cls-15" x="30" y="38" width="2" height="2"/>
  <polygon class="cls-17" points="30 30 28 30 26 30 24 30 24 32 26 32 28 32 30 32 32 32 32 30 30 30"/>
  <rect class="cls-3" x="30" y="18" width="2" height="2"/>
  <polygon points="32 2 34 2 36 2 38 2 40 2 42 2 42 0 40 0 38 0 36 0 34 0 32 0 30 0 28 0 28 2 30 2 32 2"/>
  <polygon class="cls-1" points="28 46 26 46 26 48 26 50 28 50 28 48 28 46"/>
  <rect class="cls-13" x="26" y="44" width="2" height="2"/>
  <rect class="cls-8" x="26" y="42" width="2" height="2"/>
  <rect class="cls-6" x="26" y="40" width="2" height="2"/>
  <rect class="cls-15" x="28" y="36" width="2" height="2"/>
  <polygon points="30 24 30 22 28 22 26 22 26 24 28 24 30 24"/>
  <polygon class="cls-10" points="24 78 24 80 22 80 20 80 18 80 18 82 20 82 22 82 24 82 26 82 28 82 28 80 28 78 26 78 24 78"/>
  <polygon class="cls-17" points="24 76 26 76 28 76 28 74 28 72 28 70 28 68 28 66 28 64 30 64 30 62 30 60 32 60 32 58 32 56 34 56 34 54 32 54 30 54 28 54 26 54 26 56 24 56 24 58 24 60 24 62 22 62 22 64 22 66 22 68 22 70 22 72 22 74 24 74 24 76"/>
  <polygon class="cls-12" points="28 14 30 14 32 14 34 14 36 14 36 16 38 16 38 14 38 12 36 12 36 10 36 8 34 8 34 10 32 10 32 12 30 12 28 12 26 12 26 10 26 8 24 8 24 10 24 12 24 14 26 14 28 14"/>
  <polygon points="26 12 28 12 30 12 32 12 32 10 30 10 28 10 28 8 26 8 26 10 26 12"/>
  <polygon class="cls-4" points="26 4 26 6 26 8 28 8 28 10 30 10 32 10 32 8 34 8 34 6 36 6 36 8 38 8 40 8 40 6 42 6 42 4 42 2 40 2 38 2 36 2 34 2 32 2 30 2 28 2 28 4 26 4"/>
  <polygon points="28 4 28 2 26 2 24 2 24 4 26 4 28 4"/>
  <polygon class="cls-7" points="24 42 24 40 24 38 24 36 22 36 22 38 20 38 20 40 20 42 22 42 22 44 24 44 24 42"/>
  <rect class="cls-13" x="24" y="34" width="2" height="2"/>
  <polygon class="cls-16" points="26 30 26 28 24 28 22 28 22 30 22 32 24 32 24 30 26 30"/>
  <rect class="cls-3" x="24" y="18" width="2" height="2"/>
  <rect class="cls-9" x="24" y="4" width="2" height="2"/>
  <rect x="20" y="42" width="2" height="2"/>
  <polygon class="cls-17" points="20 30 18 30 16 30 16 32 18 32 20 32 22 32 22 30 20 30"/>
  <rect class="cls-15" x="18" y="34" width="2" height="2"/>
  <polygon class="cls-5" points="18 26 20 26 22 26 22 24 20 24 20 22 18 22 18 24 18 26"/>
  <rect class="cls-15" x="16" y="36" width="2" height="2"/>
  <polygon class="cls-11" points="16 34 14 34 14 36 16 36 18 36 18 34 16 34"/>
  <polygon class="cls-5" points="18 30 20 30 22 30 22 28 20 28 18 28 16 28 16 30 18 30"/>
  <rect class="cls-2" x="16" y="22" width="2" height="2"/>
  <polygon class="cls-16" points="16 28 14 28 14 30 14 32 16 32 16 30 16 28"/>
  <rect class="cls-17" x="12" y="30" width="2" height="2"/>
  <polygon class="cls-16" points="10 30 10 28 8 28 8 30 8 32 10 32 12 32 12 30 10 30"/>
  <polygon class="cls-5" points="12 30 14 30 14 28 12 28 10 28 10 30 12 30"/>
  <rect class="cls-17" x="8" y="26" width="2" height="2"/>
  <rect class="cls-17" x="6" y="30" width="2" height="2"/>
  <path d="M6,28h2v-2h2v2h16v2h6v-2h-4v-2h-2v-2h-2v-6h2v-2h-2v-8h2v-2h-2v-2h-2v16h-8v6h-2v-2h-6v2H2v2h4ZM16,22h4v2h2v2h-4v-2h-2v-2Z"/>
  <polygon class="cls-5" points="4 30 6 30 8 30 8 28 6 28 4 28 2 28 2 30 4 30"/>
</svg>